<?xml version="1.0" encoding="iso-8859-1"?>
<!-- Generator: Adobe Illustrator 19.0.0, SVG Export Plug-In . SVG Version: 6.00 Build 0)  -->
<svg version="1.1" id="Layer_1" xmlns="http://www.w3.org/2000/svg" xmlns:xlink="http://www.w3.org/1999/xlink" x="0px" y="0px"
	 viewBox="0 0 511.998 511.998" style="enable-background:new 0 0 511.998 511.998;" xml:space="preserve">
<g style="enable-background:new    ;">
	<g>
		<path style="fill:#898890;" d="M414.874,132.969v287.694c-0.066,23.339-16.22,46.643-46.863,64.45
			c-61.682,35.846-162.021,35.846-224.107,0.001c-31.241-18.037-46.03-41.714-45.962-65.356V132.065
			c-0.067,23.641,15.537,47.318,46.778,65.356c62.086,35.845,162.424,35.845,224.107-0.001
			C399.469,179.614,414.808,156.309,414.874,132.969z"/>
		<path style="fill:#898890;" d="M368.094,67.611c62.086,35.845,62.415,93.963,0.732,129.81s-162.021,35.846-224.107,0.001
			s-62.411-93.964-0.728-129.81C205.674,31.767,306.008,31.766,368.094,67.611z"/>
	</g>
	<g>
		<path style="fill:#77767E;" d="M364.466,235.395l-0.775,223.899c-0.083,0.048-0.163,0.095-0.247,0.143
			c-6.707,3.897-13.893,7.353-21.45,10.366l0.775-223.899c7.557-3.013,14.742-6.469,21.45-10.366
			C364.302,235.49,364.384,235.443,364.466,235.395z"/>
		<path style="fill:#77767E;" d="M395.742,208.737l-0.775,223.899c-3.688,4.904-8.186,9.654-13.497,14.176l0.775-223.899
			C387.556,218.391,392.053,213.641,395.742,208.737z"/>
		<path style="fill:#77767E;" d="M318.37,253.803l-0.775,223.899c-8.598,2.202-17.478,3.915-26.515,5.146l0.775-223.899
			C300.892,257.719,309.772,256.004,318.37,253.803z"/>
		<path style="fill:#77767E;" d="M264.141,261.181l-0.775,223.899c-9.328,0.25-18.691,0.003-27.961-0.742l0.775-223.899
			C245.45,261.185,254.813,261.431,264.141,261.181z"/>
		<path style="fill:#77767E;" d="M208.908,256.749l-0.775,223.899c-8.803-1.7-17.392-3.882-25.647-6.54l0.775-223.899
			C191.516,252.867,200.105,255.049,208.908,256.749z"/>
		<path style="fill:#77767E;" d="M160.131,241.042l-0.775,223.899c-3.591-1.724-7.075-3.559-10.441-5.502
			c-3.326-1.919-6.466-3.906-9.422-5.954l0.775-223.899c2.956,2.047,6.096,4.033,9.422,5.954
			C153.056,237.483,156.54,239.318,160.131,241.042z"/>
		<path style="fill:#77767E;" d="M124.338,216.229l-0.775,223.899c-4.629-4.77-8.431-9.737-11.405-14.829l0.775-223.899
			C115.907,206.491,119.709,211.46,124.338,216.229z"/>
	</g>
</g>
<path style="fill:#C6C5CB;" d="M422.347,97.139c0.223-24.923-16.148-49.912-49.085-68.928
	C308.112-9.403,202.82-9.404,138.091,28.212c-32.26,18.748-48.355,43.301-48.32,67.871c0-0.079-0.002-0.158-0.002-0.237L89.646,139
	c-0.07,24.809,16.305,49.657,49.089,68.585c65.153,37.616,170.441,37.615,235.17-0.001c32.157-18.687,48.253-43.143,48.323-67.635
	l0.122-43.154C422.351,96.91,422.348,97.025,422.347,97.139z"/>
<path style="fill:#ACABB1;" d="M422.351,96.796l-0.122,43.154c-0.069,24.492-16.167,48.947-48.323,67.635
	c-64.729,37.616-170.017,37.617-235.17,0.001c-32.785-18.928-49.159-43.776-49.089-68.585l0.122-43.154
	c-0.07,24.809,16.305,49.657,49.089,68.585c65.153,37.616,170.441,37.615,235.17-0.001
	C406.185,145.743,422.282,121.287,422.351,96.796z"/>
<path style="fill:#C6C5CB;" d="M373.262,28.211c65.153,37.616,65.496,98.603,0.767,136.219s-170.017,37.617-235.17,0.001
	c-65.151-37.614-65.497-98.603-0.768-136.219S308.112-9.403,373.262,28.211z"/>
<g>
	<polygon style="fill:#ACABB1;" points="296.756,128.725 315.901,117.578 336.565,129.546 317.484,140.692 	"/>
	<polygon style="fill:#ACABB1;" points="176.251,59.116 195.396,47.969 216.061,59.937 196.979,71.083 	"/>
</g>
<g>
	<polygon style="fill:#77767E;" points="209.354,47.469 228.5,36.343 228.412,73.542 209.354,84.668 	"/>
	<polygon style="fill:#77767E;" points="296.756,83.139 315.901,72.013 315.901,117.578 296.756,128.704 	"/>
</g>
<polygon style="fill:#ACABB1;" points="196.977,25.533 216.123,14.407 315.901,72.013 296.756,83.139 "/>
<polygon style="fill:#898890;" points="296.676,128.697 296.756,128.704 296.756,83.139 196.977,25.533 196.977,71.098 
	196.994,71.117 176.251,59.116 176.251,65.15 209.354,84.668 209.354,47.469 284.295,90.738 284.295,127.569 317.399,147.087 
	317.399,140.686 "/>
<polygon style="fill:#77767E;" points="336.565,135.946 317.399,147.087 317.399,140.686 336.565,129.546 "/>
<g>
</g>
<g>
</g>
<g>
</g>
<g>
</g>
<g>
</g>
<g>
</g>
<g>
</g>
<g>
</g>
<g>
</g>
<g>
</g>
<g>
</g>
<g>
</g>
<g>
</g>
<g>
</g>
<g>
</g>
</svg>
